<svg xmlns="http://www.w3.org/2000/svg" viewBox="0 0 400 250">
    <!-- Background -->
    <rect width="400" height="250" fill="#f8fafc"/>
    
    <!-- Title -->
    <text x="20" y="25" font-family="Arial" font-size="12" font-weight="bold" fill="#1e293b">Working Capital Analysis</text>
    
    <!-- Main Chart -->
    <rect x="20" y="35" width="240" height="140" fill="white" stroke="#e2e8f0" stroke-width="1" rx="3"/>
    
    <!-- Chart Grid -->
    <g transform="translate(30,45)">
        <!-- Grid Lines -->
        <line x1="0" y1="0" x2="220" y2="0" stroke="#e2e8f0" stroke-width="0.5"/>
        <line x1="0" y1="30" x2="220" y2="30" stroke="#e2e8f0" stroke-width="0.5"/>
        <line x1="0" y1="60" x2="220" y2="60" stroke="#e2e8f0" stroke-width="0.5"/>
        <line x1="0" y1="90" x2="220" y2="90" stroke="#e2e8f0" stroke-width="0.5"/>
        <line x1="0" y1="120" x2="220" y2="120" stroke="#e2e8f0" stroke-width="0.5"/>

        <!-- Lines -->
        <path d="M0,90 L55,80 L110,65 L165,50 L220,35" fill="none" stroke="#3b82f6" stroke-width="1.5"/>
        <path d="M0,100 L55,90 L110,80 L165,70 L220,65" fill="none" stroke="#10b981" stroke-width="1.5"/>
        <path d="M0,95 L55,85 L110,72 L165,60 L220,50" fill="none" stroke="#f59e0b" stroke-width="1.5"/>

        <!-- Data Points -->
        <!-- TMH -->
        <g fill="#3b82f6">
            <circle cx="0" cy="90" r="2"/>
            <circle cx="55" cy="80" r="2"/>
            <circle cx="110" cy="65" r="2"/>
            <circle cx="165" cy="50" r="2"/>
            <circle cx="220" cy="35" r="2"/>
        </g>

        <!-- Raymond -->
        <g fill="#10b981">
            <circle cx="0" cy="100" r="2"/>
            <circle cx="55" cy="90" r="2"/>
            <circle cx="110" cy="80" r="2"/>
            <circle cx="165" cy="70" r="2"/>
            <circle cx="220" cy="65" r="2"/>
        </g>

        <!-- TMH Heavy Duty -->
        <g fill="#f59e0b">
            <circle cx="0" cy="95" r="2"/>
            <circle cx="55" cy="85" r="2"/>
            <circle cx="110" cy="72" r="2"/>
            <circle cx="165" cy="60" r="2"/>
            <circle cx="220" cy="50" r="2"/>
        </g>

        <!-- X-Axis Labels -->
        <text x="0" y="130" text-anchor="middle" font-family="Arial" font-size="8" fill="#64748b">Q1</text>
        <text x="55" y="130" text-anchor="middle" font-family="Arial" font-size="8" fill="#64748b">Q2</text>
        <text x="110" y="130" text-anchor="middle" font-family="Arial" font-size="8" fill="#64748b">Q3</text>
        <text x="165" y="130" text-anchor="middle" font-family="Arial" font-size="8" fill="#64748b">Q4</text>
        <text x="220" y="130" text-anchor="middle" font-family="Arial" font-size="8" fill="#64748b">Q1'24</text>

        <!-- Y-Axis Labels -->
        <text x="-5" y="120" text-anchor="end" font-family="Arial" font-size="8" fill="#64748b">15B</text>
        <text x="-5" y="90" text-anchor="end" font-family="Arial" font-size="8" fill="#64748b">25B</text>
        <text x="-5" y="60" text-anchor="end" font-family="Arial" font-size="8" fill="#64748b">35B</text>
        <text x="-5" y="30" text-anchor="end" font-family="Arial" font-size="8" fill="#64748b">45B</text>
        <text x="-5" y="0" text-anchor="end" font-family="Arial" font-size="8" fill="#64748b">55B</text>
    </g>

    <!-- Legend -->
    <g transform="translate(30,185)">
        <circle cx="0" cy="0" r="2" fill="#3b82f6"/>
        <text x="8" y="3" font-family="Arial" font-size="8" fill="#334155">TMH</text>
        <circle cx="40" cy="0" r="2" fill="#10b981"/>
        <text x="48" y="3" font-family="Arial" font-size="8" fill="#334155">Raymond</text>
        <circle cx="90" cy="0" r="2" fill="#f59e0b"/>
        <text x="98" y="3" font-family="Arial" font-size="8" fill="#334155">TMH Heavy Duty</text>
    </g>

    <!-- Metrics Panel -->
    <g transform="translate(270,35)">
        <!-- TMH -->
        <rect width="120" height="40" fill="white" stroke="#e2e8f0" stroke-width="1" rx="3"/>
        <text x="10" y="15" font-family="Arial" font-size="8" font-weight="bold" fill="#3b82f6">TMH</text>
        <text x="10" y="30" font-family="Arial" font-size="10" font-weight="bold" fill="#334155">₹34.8B</text>
        <text x="60" y="30" font-family="Arial" font-size="8" fill="#10b981">+10.5%</text>

        <!-- Raymond -->
        <rect y="45" width="120" height="40" fill="white" stroke="#e2e8f0" stroke-width="1" rx="3"/>
        <text x="10" y="60" font-family="Arial" font-size="8" font-weight="bold" fill="#10b981">Raymond</text>
        <text x="10" y="75" font-family="Arial" font-size="10" font-weight="bold" fill="#334155">₹30.5B</text>
        <text x="60" y="75" font-family="Arial" font-size="8" fill="#10b981">+8.2%</text>

        <!-- TMH Heavy Duty -->
        <rect y="90" width="120" height="40" fill="white" stroke="#e2e8f0" stroke-width="1" rx="3"/>
        <text x="10" y="105" font-family="Arial" font-size="8" font-weight="bold" fill="#f59e0b">TMH Heavy Duty</text>
        <text x="10" y="120" font-family="Arial" font-size="10" font-weight="bold" fill="#334155">₹32.2B</text>
        <text x="60" y="120" font-family="Arial" font-size="8" fill="#10b981">+9.4%</text>

        <!-- Ratio Box -->
        <rect y="135" width="120" height="40" fill="white" stroke="#e2e8f0" stroke-width="1" rx="3"/>
        <text x="10" y="150" font-family="Arial" font-size="8" font-weight="bold" fill="#334155">Working Capital Ratio</text>
        <text x="10" y="165" font-family="Arial" font-size="8" fill="#64748b">TMH: 2.4 | RAY: 1.9 | THD: 2.1</text>
    </g>
</svg>